<svg class="icon" viewBox="0 0 1024 1024" version="1.1" xmlns="http://www.w3.org/2000/svg" width="200" height="200"><path d="M512 0C229.23264 0 0 229.23264 0 512s229.23264 512 512 512 512-229.23264 512-512S794.76736 0 512 0z m256 563.2h-204.8v204.8c0 28.16-23.04 51.2-51.2 51.2s-51.2-23.04-51.2-51.2v-204.8H256c-28.16 0-51.2-23.04-51.2-51.2s23.04-51.2 51.2-51.2h204.8V256c0-28.16 23.04-51.2 51.2-51.2s51.2 23.04 51.2 51.2v204.8h204.8c28.16 0 51.2 23.04 51.2 51.2s-23.04 51.2-51.2 51.2z" fill="#272636"></path></svg>