<?xml version="1.0" standalone="no"?><!DOCTYPE svg PUBLIC "-//W3C//DTD SVG 1.1//EN" "http://www.w3.org/Graphics/SVG/1.1/DTD/svg11.dtd"><svg class="icon" viewBox="0 0 1024 1024" version="1.1" xmlns="http://www.w3.org/2000/svg"
                                                                                                                                            xmlns:xlink="http://www.w3.org/1999/xlink" width="200" height="200"><path d="M 517.29 512 m -488 0 a 488 488 0 1 0 976 0 a 488 488 0 1 0 -976 0 Z" fill="#FF7100"
                                                                                                                                                                                                                      class="selected"></path><path d="M 73.19 513.92 a 446.02 442.24 0 1 0 892.04 0 a 446.02 442.24 0 1 0 -892.04 0 Z" fill="#fff6eb"></path><path d="M 448.49 599.48 l 47.31 18.99 c -1.14 75.12 1.19 134.9 3.57 175.92 c 2.51 43.37 5.26 69.2 -11.14 82.07 c -17.59 13.8 -47.98 2.53 -108.04 -20.57 C 315.01 830.82 277.8 816 275 790.07 c -1.99 -18.46 14.39 -33.94 26.97 -45.93 c 39 -37.18 85.21 -82.61 146.52 -144.66 Z M 551.69 614.73 c 11.9 -7.28 23.81 -14.56 35.71 -21.83 c 69.15 45.39 125.01 84.84 166.8 115.35 c 16.52 12.06 35.99 26.68 36.13 46.54 c 0.05 7.51 -2.59 25.06 -81.21 72.89 c -62.11 37.79 -94.64 57.04 -116.8 43.91 c -15.79 -9.35 -19 -30.8 -21.17 -46.7 c -6.42 -47.13 -14.41 -117.63 -19.46 -210.16 Z M 411.35 526.64 c 3.11 16.71 6.22 33.41 9.34 50.12 c -64.02 39.32 -113.23 73.34 -146.58 97.34 c -35.26 25.37 -55.59 41.55 -75.25 34.61 c -21.08 -7.44 -27.86 -39.14 -40.57 -102.23 c -13.79 -68.46 -21.23 -107.82 -0.85 -124.08 c 14.51 -11.58 36.37 -6.05 53.23 -1.87 c 52.3 12.98 115.43 27.63 200.68 46.11 Z M 447.6 427.42 c -9.31 14.22 -18.62 28.44 -27.92 42.65 c -73.43 -15.89 -132.5 -25.35 -173.19 -31.08 c -43.01 -6.06 -68.89 -8.44 -78.28 -27.05 c -10.07 -19.96 6.95 -47.54 41.41 -101.89 c 37.39 -58.98 59.24 -92.55 85.21 -90.2 c 18.49 1.68 30.45 20.78 39.73 35.47 c 28.79 45.54 64.25 99.79 113.04 172.1 Z M 535.36 403.02 c -16.96 1 -33.93 2 -50.89 2.99 c -31 -68.43 -58.61 -121.51 -78.25 -157.6 c -20.76 -38.15 -34.27 -60.35 -24.92 -78.98 c 10.02 -19.98 42.32 -22.75 106.5 -27.46 c 69.64 -5.12 109.62 -7.58 123.21 14.68 c 9.67 15.85 1.45 36.84 -4.81 53.04 c -19.42 50.26 -41.85 111.06 -70.84 193.33 Z M 617.43 454.82 l -33.81 -38.16 c 34.63 -66.67 59.29 -121.17 75.53 -158.92 c 17.16 -39.91 26.26 -64.24 46.68 -68.41 c 21.9 -4.47 44.04 19.21 87.42 66.74 c 47.07 51.58 73.72 81.49 64.62 105.93 c -6.48 17.4 -28.06 23.91 -44.67 29.01 c -51.52 15.81 -113.18 35.75 -195.77 63.81 Z M 617.08 552.22 c 2.56 -16.8 5.12 -33.6 7.69 -50.4 c 73.4 -16.05 131.06 -31.97 170.45 -43.65 c 41.65 -12.35 66.17 -20.93 82.45 -7.9 c 17.45 13.97 13.42 46.13 4.65 109.89 c -9.52 69.18 -15.45 108.8 -40.05 117.44 c -17.52 6.16 -36.33 -6.26 -50.87 -15.76 c -45.13 -29.49 -99.91 -64.1 -174.32 -109.62 Z" fill="#FF7100" class="selected"></path></svg>